<svg width="18" height="13" viewBox="0 0 18 13" fill="none" xmlns="http://www.w3.org/2000/svg">
<path fill-rule="evenodd" clip-rule="evenodd" d="M16.0326 0.386253C16.8071 0.598786 17.4171 1.22501 17.6241 2.02026C18.0003 3.46156 18.0003 6.46885 18.0003 6.46885C18.0003 6.46885 18.0003 9.47603 17.6241 10.9174C17.4171 11.7127 16.8071 12.3389 16.0326 12.5515C14.629 12.9377 9.00014 12.9377 9.00014 12.9377C9.00014 12.9377 3.37127 12.9377 1.96755 12.5515C1.19303 12.3389 0.583066 11.7127 0.376063 10.9174C0 9.47603 0 6.46885 0 6.46885C0 6.46885 0 3.46156 0.376063 2.02026C0.583066 1.22501 1.19303 0.598786 1.96755 0.386253C3.37127 0 9.00014 0 9.00014 0C9.00014 0 14.629 0 16.0326 0.386253ZM7.31263 3.9375V9.56259L11.8127 6.75015L7.31263 3.9375Z" fill="#852D6B"/>
</svg>
