<svg width="65" height="65" viewBox="0 0 65 65" fill="none" xmlns="http://www.w3.org/2000/svg">
<path d="M59.5837 48.75C59.5837 51.6232 58.4423 54.3787 56.4106 56.4103C54.379 58.442 51.6235 59.5833 48.7503 59.5833H40.6253C37.7521 59.5833 34.9966 58.442 32.965 56.4103C30.9334 54.3787 29.792 51.6232 29.792 48.75V43.3333H48.1816L55.6566 30.4146L59.8816 32.8521L53.8149 43.3333H59.5837V48.75ZM24.3753 59.5833H5.41699C5.41699 51.4583 5.41699 43.3333 6.31074 34.7479C7.04199 27.8958 8.34199 20.7458 9.75033 13.5417H8.12533V8.125H21.667V13.5417H20.042C21.4503 20.7458 22.7503 27.8958 23.4816 34.7479C24.3753 43.3333 24.3753 51.4583 24.3753 59.5833Z" fill="white"/>
</svg>
