<svg width="16" height="13" viewBox="0 0 16 13" fill="none" xmlns="http://www.w3.org/2000/svg">
<path fill-rule="evenodd" clip-rule="evenodd" d="M7.63832 3.45821L7.67242 4.02049L7.10409 3.95164C5.03538 3.68771 3.2281 2.79264 1.69362 1.28938L0.943424 0.543494L0.750192 1.09431C0.340996 2.32216 0.602427 3.61886 1.45492 4.49098C1.90958 4.97294 1.80728 5.04179 1.02299 4.75491C0.750192 4.66311 0.511495 4.59426 0.488762 4.62868C0.409196 4.70901 0.681993 5.75326 0.897957 6.16637C1.19349 6.74013 1.79591 7.30242 2.45517 7.6352L3.01214 7.89913L2.35288 7.9106C1.71635 7.9106 1.69362 7.92208 1.76182 8.16306C1.98915 8.90895 2.8871 9.70074 3.88736 10.045L4.59209 10.286L3.97829 10.6532C3.06897 11.181 2.00051 11.4794 0.932057 11.5024C0.420562 11.5138 0 11.5597 0 11.5942C0 11.7089 1.38672 12.3515 2.19374 12.604C4.61482 13.3499 7.49056 13.0286 9.6502 11.7548C11.1847 10.8483 12.7192 9.04665 13.4353 7.30242C13.8217 6.37292 14.2082 4.67458 14.2082 3.85984C14.2082 3.33198 14.2423 3.26313 14.8788 2.63199C15.2539 2.26478 15.6063 1.86315 15.6745 1.74839C15.7881 1.53037 15.7768 1.53037 15.1971 1.72544C14.2309 2.0697 14.0945 2.0238 14.5719 1.50741C14.9243 1.14021 15.3448 0.474642 15.3448 0.279563C15.3448 0.245137 15.1743 0.302513 14.9811 0.405791C14.7765 0.520543 14.3219 0.692672 13.9809 0.795949L13.3671 0.991028L12.8101 0.612345C12.5032 0.405791 12.0713 0.176286 11.8439 0.107434C11.2643 -0.0532193 10.3777 -0.0302688 9.8548 0.153335C8.43398 0.669721 7.53602 2.00085 7.63832 3.45821Z" fill="#211E20"/>
</svg>
