<svg width="67" height="12" viewBox="0 0 67 12" fill="none" xmlns="http://www.w3.org/2000/svg">
<path d="M6 1L7.545 4.13L11 4.635L8.5 7.07L9.09 10.51L6 8.885L2.91 10.51L3.5 7.07L1 4.635L4.455 4.13L6 1Z" fill="white" stroke="white" stroke-width="0.5" stroke-linecap="round" stroke-linejoin="round"/>
<path d="M20 1L21.545 4.13L25 4.635L22.5 7.07L23.09 10.51L20 8.885L16.91 10.51L17.5 7.07L15 4.635L18.455 4.13L20 1Z" fill="white" stroke="white" stroke-width="0.5" stroke-linecap="round" stroke-linejoin="round"/>
<path d="M33.5003 1L34.9166 4.13L38.0837 4.635L35.792 7.07L36.3328 10.51L33.5003 8.885L30.6678 10.51L31.2087 7.07L28.917 4.635L32.0841 4.13L33.5003 1Z" fill="white" stroke="white" stroke-width="0.5" stroke-linecap="round" stroke-linejoin="round"/>
<path d="M47 1L48.545 4.13L52 4.635L49.5 7.07L50.09 10.51L47 8.885L43.91 10.51L44.5 7.07L42 4.635L45.455 4.13L47 1Z" fill="white" stroke="white" stroke-width="0.5" stroke-linecap="round" stroke-linejoin="round"/>
<path d="M61 1L62.545 4.13L66 4.635L63.5 7.07L64.09 10.51L61 8.885L57.91 10.51L58.5 7.07L56 4.635L59.455 4.13L61 1Z" fill="white" stroke="white" stroke-width="0.5" stroke-linecap="round" stroke-linejoin="round"/>
</svg>
