<svg width="18" height="18" viewBox="0 0 18 18" fill="none" xmlns="http://www.w3.org/2000/svg">
<path fill-rule="evenodd" clip-rule="evenodd" d="M18.0003 8.98766C18.0003 9.59632 17.9383 10.2041 17.8166 10.7966C17.6979 11.375 17.5221 11.9429 17.2919 12.4857C17.0669 13.019 16.7878 13.5328 16.4617 14.012C16.1404 14.4882 15.7704 14.935 15.3639 15.3422C14.9564 15.7477 14.5082 16.1167 14.0322 16.4393C13.5514 16.7632 13.0368 17.0418 12.5033 17.2679C11.9596 17.497 11.3905 17.6725 10.8126 17.791C10.2193 17.913 9.60927 17.9753 8.99973 17.9753C8.38973 17.9753 7.77974 17.913 7.18732 17.791C6.60853 17.6725 6.03939 17.497 5.49619 17.2679C4.96267 17.0418 4.44757 16.7632 3.96679 16.4393C3.49083 16.1168 3.04256 15.7477 2.63604 15.3422C2.22909 14.935 1.85902 14.4882 1.53733 14.012C1.21299 13.5328 0.933457 13.0189 0.707579 12.4857C0.477262 11.9429 0.301054 11.375 0.18195 10.7966C0.0615424 10.2041 0 9.59632 0 8.98766C0 8.37854 0.0615071 7.76942 0.181985 7.17825C0.301089 6.59984 0.477297 6.0311 0.707614 5.48913C0.933492 4.95551 1.21302 4.44119 1.53736 3.96194C1.85906 3.48537 2.22912 3.03947 2.63607 2.63177C3.04259 2.22626 3.49086 1.8581 3.96682 1.53599C4.44761 1.21078 4.9627 0.932145 5.49622 0.705678C6.03943 0.476115 6.60853 0.300162 7.18735 0.182567C7.77977 0.0614535 8.38977 0 8.99977 0C9.60931 0 10.2193 0.0614535 10.8126 0.182567C11.3905 0.300197 11.9596 0.476151 12.5033 0.705678C13.0368 0.93211 13.5515 1.21078 14.0323 1.53599C14.5082 1.8581 14.9565 2.22626 15.3639 2.63177C15.7704 3.03947 16.1405 3.48537 16.4617 3.96194C16.7878 4.44119 17.0669 4.95554 17.2919 5.48913C17.5221 6.0311 17.6979 6.59984 17.8166 7.17825C17.9383 7.76942 18.0003 8.37854 18.0003 8.98766ZM5.72027 2.04547C3.5769 3.05617 1.97718 5.02834 1.47836 7.40516C1.68099 7.40691 4.88394 7.4473 8.57426 6.46819C7.24397 4.10805 5.82268 2.18199 5.72027 2.04547ZM9.21106 7.65006C5.25354 8.83316 1.45595 8.74803 1.31973 8.74279C1.31751 8.82528 1.31356 8.90513 1.31356 8.98765C1.31356 10.9594 2.05848 12.7569 3.28288 14.1161C3.28024 14.1121 5.38364 10.3858 9.53146 9.04647C9.63164 9.01312 9.73363 8.98325 9.8347 8.9543C9.64179 8.51811 9.43124 8.08101 9.21106 7.65006ZM14.0757 3.22731C12.7225 2.03581 10.9457 1.31307 8.99971 1.31307C8.37519 1.31307 7.76914 1.38856 7.18859 1.5281C7.30372 1.6826 8.74744 3.59508 10.0619 6.0052C12.9621 4.91951 14.0568 3.25538 14.0757 3.22731ZM10.3586 10.2261C10.3415 10.2317 10.3244 10.2366 10.3076 10.2428C5.7727 11.8214 4.29175 15.0029 4.27573 15.0376C5.58058 16.0509 7.21721 16.6622 8.99976 16.6622C10.0642 16.6622 11.078 16.4458 12.0005 16.054C11.8867 15.3834 11.4402 13.033 10.3586 10.2261ZM13.2948 15.3527C15.0206 14.1898 16.2463 12.3431 16.5882 10.2041C16.43 10.1532 14.2796 9.47341 11.7987 9.87059C12.8069 12.6371 13.2165 14.8902 13.2948 15.3527ZM10.6535 7.14886C10.8319 7.51488 11.0047 7.8874 11.1642 8.26178C11.2209 8.39609 11.2763 8.52775 11.3303 8.65938C13.9707 8.3276 16.572 8.88581 16.6832 8.90861C16.6657 7.08917 16.0139 5.41933 14.9354 4.11203C14.9209 4.13261 13.6882 5.91128 10.6535 7.14886Z" fill="#211E20"/>
</svg>
