<svg width="16" height="13" viewBox="0 0 16 13" fill="none" xmlns="http://www.w3.org/2000/svg">
<path fill-rule="evenodd" clip-rule="evenodd" d="M7.63828 3.45819L7.67238 4.02048L7.10406 3.95162C5.03536 3.68769 3.22808 2.79263 1.69361 1.28938L0.943419 0.543491L0.750189 1.0943C0.340995 2.32215 0.602424 3.61884 1.45491 4.49096C1.90957 4.97292 1.80727 5.04177 1.02298 4.75489C0.750189 4.66309 0.511492 4.59423 0.488759 4.62866C0.409194 4.70899 0.68199 5.75323 0.897953 6.16634C1.19348 6.7401 1.79591 7.30238 2.45516 7.63516L3.01212 7.89909L2.35286 7.91057C1.71634 7.91057 1.69361 7.92204 1.76181 8.16302C1.98914 8.90891 2.88709 9.7007 3.88734 10.045L4.59206 10.2859L3.97827 10.6531C3.06895 11.181 2.0005 11.4794 0.932053 11.5023C0.42056 11.5138 0 11.5597 0 11.5941C0 11.7089 1.38671 12.3515 2.19373 12.6039C4.6148 13.3498 7.49052 13.0285 9.65015 11.7548C11.1846 10.8482 12.7191 9.04661 13.4352 7.30238C13.8217 6.37289 14.2081 4.67456 14.2081 3.85982C14.2081 3.33196 14.2422 3.26311 14.8787 2.63198C15.2538 2.26477 15.6062 1.86314 15.6744 1.74839C15.7881 1.53036 15.7767 1.53036 15.197 1.72544C14.2309 2.06969 14.0945 2.02379 14.5718 1.50741C14.9242 1.1402 15.3448 0.47464 15.3448 0.279562C15.3448 0.245136 15.1743 0.302512 14.981 0.405789C14.7764 0.520541 14.3218 0.692669 13.9808 0.795945L13.367 0.991024L12.81 0.612342C12.5031 0.405789 12.0712 0.176285 11.8439 0.107434C11.2642 -0.0532191 10.3776 -0.0302687 9.85475 0.153334C8.43394 0.669718 7.53599 2.00084 7.63828 3.45819Z" fill="#852D6B"/>
</svg>
