<svg width="18" height="18" viewBox="0 0 18 18" fill="none" xmlns="http://www.w3.org/2000/svg">
<path fill-rule="evenodd" clip-rule="evenodd" d="M9.00072 0C6.55648 0 6.24973 0.0106875 5.28973 0.0543748C4.33161 0.0982497 3.67761 0.249937 3.10537 0.472499C2.51343 0.702373 2.01131 1.00987 1.51106 1.51031C1.01043 2.01056 0.702935 2.51268 0.472311 3.10443C0.249187 3.67686 0.0973122 4.33105 0.0541873 5.2888C0.01125 6.24879 0 6.55573 0 8.99997C0 11.4442 0.010875 11.75 0.0543748 12.71C0.0984372 13.6681 0.250124 14.3221 0.472499 14.8944C0.70256 15.4863 1.01006 15.9885 1.5105 16.4887C2.01056 16.9893 2.51268 17.2976 3.10424 17.5274C3.67686 17.75 4.33105 17.9017 5.28898 17.9456C6.24898 17.9893 6.55554 17.9999 8.9996 17.9999C11.444 17.9999 11.7498 17.9893 12.7098 17.9456C13.668 17.9017 14.3227 17.75 14.8953 17.5274C15.4871 17.2976 15.9885 16.9893 16.4885 16.4887C16.9891 15.9885 17.2966 15.4863 17.5273 14.8946C17.7485 14.3221 17.9004 13.668 17.9454 12.7102C17.9885 11.7502 17.9998 11.4442 17.9998 8.99997C17.9998 6.55573 17.9885 6.24898 17.9454 5.28898C17.9004 4.33086 17.7485 3.67686 17.5273 3.10462C17.2966 2.51268 16.9891 2.01056 16.4885 1.51031C15.9879 1.00968 15.4873 0.702185 14.8948 0.472499C14.321 0.249937 13.6666 0.0982497 12.7085 0.0543748C11.7485 0.0106875 11.4429 0 8.99791 0H9.00072ZM8.19331 1.62184C8.43294 1.62147 8.70031 1.62184 9.00068 1.62184C11.4037 1.62184 11.6885 1.63047 12.6374 1.67359C13.5149 1.71372 13.9912 1.86034 14.3084 1.98353C14.7284 2.14666 15.0279 2.34166 15.3427 2.65665C15.6577 2.97165 15.8527 3.27165 16.0162 3.69165C16.1394 4.00853 16.2862 4.48477 16.3261 5.36227C16.3692 6.31102 16.3786 6.59602 16.3786 8.99789C16.3786 11.3998 16.3692 11.6848 16.3261 12.6335C16.286 13.511 16.1394 13.9872 16.0162 14.3041C15.853 14.7241 15.6577 15.0232 15.3427 15.338C15.0277 15.653 14.7286 15.848 14.3084 16.0111C13.9915 16.1349 13.5149 16.2811 12.6374 16.3212C11.6887 16.3644 11.4037 16.3737 9.00068 16.3737C6.5975 16.3737 6.31269 16.3644 5.36395 16.3212C4.48645 16.2807 4.0102 16.1341 3.69276 16.0109C3.27276 15.8478 2.97277 15.6528 2.65777 15.3378C2.34277 15.0228 2.14777 14.7236 1.98427 14.3034C1.86108 13.9865 1.71427 13.5102 1.67433 12.6328C1.63121 11.684 1.62258 11.399 1.62258 8.99564C1.62258 6.59227 1.63121 6.30877 1.67433 5.36002C1.71446 4.48252 1.86108 4.00628 1.98427 3.68903C2.14739 3.26903 2.34277 2.96903 2.65777 2.65403C2.97277 2.33903 3.27276 2.14403 3.69276 1.98053C4.01001 1.85678 4.48645 1.71053 5.36395 1.67022C6.19419 1.63272 6.51594 1.62147 8.19331 1.61959V1.62184ZM13.8048 3.11622C13.2086 3.11622 12.7248 3.59941 12.7248 4.19584C12.7248 4.79209 13.2086 5.27584 13.8048 5.27584C14.401 5.27584 14.8848 4.79209 14.8848 4.19584C14.8848 3.59959 14.401 3.11622 13.8048 3.11622ZM9.00074 4.37809C6.44831 4.37809 4.37888 6.44752 4.37888 8.99995C4.37888 11.5524 6.44831 13.6209 9.00074 13.6209C11.5532 13.6209 13.6219 11.5524 13.6219 8.99995C13.6219 6.44752 11.5532 4.37809 9.00074 4.37809ZM9.0007 5.99996C10.6574 5.99996 12.0007 7.34302 12.0007 8.99995C12.0007 10.6567 10.6574 11.9999 9.0007 11.9999C7.34377 11.9999 6.00071 10.6567 6.00071 8.99995C6.00071 7.34302 7.34377 5.99996 9.0007 5.99996Z" fill="#211E20"/>
</svg>
