<svg width="44" height="50" viewBox="0 0 44 50" fill="none" xmlns="http://www.w3.org/2000/svg">
<g clip-path="url(#clip0_456_1548)">
<path d="M16.4466 45.8334C17.4559 45.8334 18.2741 44.9007 18.2741 43.7501C18.2741 42.5995 17.4559 41.6667 16.4466 41.6667C15.4373 41.6667 14.6191 42.5995 14.6191 43.7501C14.6191 44.9007 15.4373 45.8334 16.4466 45.8334Z" stroke="white" stroke-width="3" stroke-linecap="round" stroke-linejoin="round"/>
<path d="M36.5492 45.8334C37.5585 45.8334 38.3766 44.9007 38.3766 43.7501C38.3766 42.5995 37.5585 41.6667 36.5492 41.6667C35.5399 41.6667 34.7217 42.5995 34.7217 43.7501C34.7217 44.9007 35.5399 45.8334 36.5492 45.8334Z" stroke="white" stroke-width="3" stroke-linecap="round" stroke-linejoin="round"/>
<path d="M1.82715 2.08337H9.13709L14.0348 29.9792C14.2019 30.9384 14.6596 31.8 15.3278 32.4132C15.996 33.0264 16.8321 33.3521 17.6897 33.3334H35.4529C36.3105 33.3521 37.1466 33.0264 37.8148 32.4132C38.483 31.8 38.9407 30.9384 39.1078 29.9792L42.0318 12.5H10.9646" stroke="white" stroke-width="3" stroke-linecap="round" stroke-linejoin="round"/>
</g>
<defs>
<clipPath id="clip0_456_1548">
<rect width="43.8596" height="50" fill="white"/>
</clipPath>
</defs>
</svg>
