<svg width="64" height="63" viewBox="0 0 64 63" fill="none" xmlns="http://www.w3.org/2000/svg">
<g clip-path="url(#clip0_728_812)">
<path d="M32.3057 -0.706677C29.1598 -0.706677 27.0803 1.64968 25.8996 3.76647C24.6985 5.91376 24.0611 8.42691 23.9753 10.0472C23.8078 13.2703 24.2613 16.0927 25.7689 18.1311C27.3377 20.2566 29.6909 21.0711 32.3057 21.0711C34.9572 21.0711 37.3022 20.1608 38.8629 18.0352C40.3704 15.9794 40.8566 13.1788 40.6605 10.0254C40.5666 8.49224 39.921 5.99216 38.724 3.83616C37.5514 1.72372 35.4719 -0.706677 32.3097 -0.706677H32.3057ZM28.0567 10.2867C28.0976 9.40255 28.5307 7.56887 29.409 5.99216C30.3078 4.38932 31.3088 3.64887 32.3097 3.64887C33.2862 3.64887 34.2912 4.39803 35.2105 6.04878C36.097 7.66033 36.5382 9.50273 36.5873 10.3085C36.7466 12.9218 36.2849 14.4811 35.6476 15.3522C35.0634 16.1449 34.0747 16.7155 32.3057 16.7155C30.4672 16.7155 29.5193 16.1711 28.9801 15.435C28.3672 14.6074 27.9097 13.0656 28.0527 10.2867H28.0567Z" fill="white"/>
<path d="M11.8941 25.4615C9.72703 25.4615 7.6487 26.3793 6.11634 28.0129C4.58398 29.6465 3.72311 31.8622 3.72311 34.1726V60.3059H1.68036C1.13859 60.3059 0.619007 60.5353 0.235916 60.9437C-0.147174 61.3521 -0.362392 61.9061 -0.362392 62.4836C-0.362392 63.0612 -0.147174 63.6152 0.235916 64.0236C0.619007 64.432 1.13859 64.6614 1.68036 64.6614H62.9629C63.5047 64.6614 64.0243 64.432 64.4074 64.0236C64.7904 63.6152 65.0057 63.0612 65.0057 62.4836C65.0057 61.9061 64.7904 61.3521 64.4074 60.9437C64.0243 60.5353 63.5047 60.3059 62.9629 60.3059H60.9202V34.1726C60.9202 31.8622 60.0593 29.6465 58.5269 28.0129C56.9946 26.3793 54.9162 25.4615 52.7492 25.4615H11.8941ZM56.8347 60.3059H7.80861V43.3976L14.1207 49.4083C14.9221 50.1723 15.857 50.7603 16.8719 51.1384C17.8868 51.5165 18.9617 51.6774 20.035 51.6119C21.1083 51.5464 22.1589 51.2556 23.1267 50.7564C24.0944 50.2572 24.9602 49.5593 25.6745 48.7027L29.2698 44.3907C29.6531 43.9309 30.1234 43.5628 30.6498 43.3107C31.1761 43.0587 31.7466 42.9284 32.3237 42.9284C32.9007 42.9284 33.4712 43.0587 33.9976 43.3107C34.524 43.5628 34.9943 43.9309 35.3776 44.3907L38.9687 48.7027C39.6828 49.5602 40.5486 50.2591 41.5166 50.759C42.4846 51.259 43.5356 51.5504 44.6094 51.6163C45.6832 51.6823 46.7587 51.5216 47.7741 51.1434C48.7895 50.7653 49.7249 50.1771 50.5266 49.4126L56.8347 43.3976V60.3059ZM56.8347 37.5525L47.8016 46.1634C47.4009 46.5454 46.9335 46.8394 46.426 47.0285C45.9186 47.2175 45.3811 47.298 44.8445 47.2652C44.3078 47.2324 43.7825 47.0871 43.2986 46.8375C42.8148 46.5879 42.3818 46.2389 42.0247 45.8106L38.4295 41.4986C37.6629 40.5789 36.7222 39.8428 35.6694 39.3387C34.6167 38.8346 33.4757 38.574 32.3216 38.574C31.1676 38.574 30.0266 38.8346 28.9738 39.3387C27.9211 39.8428 26.9804 40.5789 26.2138 41.4986L22.6186 45.8106C22.2614 46.2389 21.8285 46.5879 21.3446 46.8375C20.8608 47.0871 20.3355 47.2324 19.7988 47.2652C19.2621 47.298 18.7247 47.2175 18.2172 47.0285C17.7098 46.8394 17.2423 46.5454 16.8417 46.1634L7.80861 37.5525V34.1726C7.80861 33.0174 8.23905 31.9096 9.00523 31.0927C9.77141 30.2759 10.8106 29.817 11.8941 29.817H52.7492C53.8327 29.817 54.8719 30.2759 55.638 31.0927C56.4042 31.9096 56.8347 33.0174 56.8347 34.1726V37.5525Z" fill="white"/>
</g>
<defs>
<clipPath id="clip0_728_812">
<rect width="63.6393" height="62.4865" fill="white" transform="scale(1.00566)"/>
</clipPath>
</defs>
</svg>
