<svg width="65" height="65" viewBox="0 0 65 65" fill="none" xmlns="http://www.w3.org/2000/svg">
<path d="M19.5445 15.7686L26.0648 9.24829L32.5852 15.7686L26.0648 22.2889L19.5445 15.7686ZM15.7664 32.5874L9.24609 26.067L15.7664 19.5467L22.2867 26.067L15.7664 32.5874Z" fill="white"/>
<path d="M28.0779 4.90143L43.3651 20.2089L43.5276 20.0464C43.8478 19.733 44.2767 19.5552 44.7248 19.5503C45.1729 19.5454 45.6056 19.7137 45.9326 20.02L45.9448 20.0322L47.7059 21.7933C48.3254 22.4128 48.3457 23.3574 47.8745 24.0155L47.8664 24.0297L47.5759 24.4197L60.0884 36.9322C61.2056 38.0494 61.2056 39.8369 60.0884 40.9541L40.9337 60.1088C39.8165 61.226 38.029 61.226 36.9118 60.1088L27.8789 51.0758C27.7288 51.2649 27.5405 51.4201 27.3262 51.5311C27.1119 51.6422 26.8766 51.7067 26.6356 51.7203C26.3946 51.7339 26.1535 51.6964 25.9281 51.6102C25.7026 51.524 25.498 51.391 25.3276 51.22L20.0464 45.9388C19.7329 45.6185 19.5552 45.1897 19.5503 44.7416C19.5453 44.2935 19.7136 43.8608 20.02 43.5338L20.0321 43.5196L20.1886 43.3652L4.90137 28.078C3.78418 26.9608 3.78418 25.1733 4.90137 24.0561L24.0561 4.90143C25.1732 3.78424 26.9607 3.78424 28.0779 4.90143ZM41.4436 22.1264L37.8787 18.5616C37.7666 18.446 37.6324 18.3541 37.4841 18.2913C37.3358 18.2285 37.1765 18.1962 37.0154 18.1962C36.8544 18.1962 36.695 18.2285 36.5467 18.2913C36.3984 18.3541 36.2642 18.446 36.1521 18.5616L28.8803 25.8335C28.7651 25.9479 28.6736 26.084 28.6112 26.2339C28.5488 26.3838 28.5167 26.5445 28.5167 26.7069C28.5167 26.8693 28.5488 27.03 28.6112 27.1799C28.6736 27.3298 28.7651 27.4659 28.8803 27.5803L32.4329 31.133L33.672 29.8939L30.4931 26.715L37.0134 20.1744L40.2004 23.3716L41.4436 22.1264ZM31.135 32.4289L27.5721 28.8661C27.4601 28.7505 27.3259 28.6586 27.1776 28.5958C27.0293 28.5331 26.8699 28.5007 26.7089 28.5007C26.5478 28.5007 26.3884 28.5331 26.2402 28.5958C26.0919 28.6586 25.9577 28.7505 25.8456 28.8661L18.5737 36.138L18.5636 36.1481L18.5534 36.1583C18.0659 36.6255 18.0659 37.3974 18.5534 37.8849L22.1121 41.4436L23.3634 40.1924L20.1743 37.0155L26.715 30.4952L29.8918 33.67L31.135 32.4289ZM17.9196 16.6421L25.1915 23.9139C25.679 24.4014 26.4509 24.4014 26.9181 23.8936L34.19 16.6217C34.3055 16.5117 34.3975 16.3794 34.4603 16.2327C34.5232 16.0861 34.5556 15.9282 34.5556 15.7686H34.5759C34.5759 15.4639 34.454 15.1389 34.2103 14.8952L26.9384 7.6233C26.8241 7.50784 26.6881 7.41619 26.5382 7.35363C26.3882 7.29108 26.2274 7.25887 26.065 7.25887C25.9025 7.25887 25.7417 7.29108 25.5918 7.35363C25.4418 7.41619 25.3058 7.50784 25.1915 7.6233L17.9196 14.9155C17.4321 15.3827 17.4321 16.1546 17.9196 16.6421ZM7.62121 26.9405L14.8931 34.2124C15.3806 34.6999 16.1525 34.6999 16.6196 34.2124L23.8915 26.9405C24.0096 26.8281 24.103 26.6925 24.1659 26.5421C24.2289 26.3918 24.2599 26.23 24.2572 26.0671H24.2775C24.2775 25.7421 24.1556 25.4374 23.9118 25.1936L16.64 17.9217C16.5279 17.8061 16.3937 17.7142 16.2454 17.6515C16.0971 17.5887 15.9377 17.5563 15.7767 17.5563C15.6157 17.5563 15.4563 17.5887 15.308 17.6515C15.1597 17.7142 15.0255 17.8061 14.9134 17.9217L7.62121 25.2139C7.13371 25.6811 7.13371 26.453 7.62121 26.9405ZM21.7039 44.7221L26.5017 49.5219L46.0748 23.0344L44.7443 21.7039L21.7039 44.7221Z" fill="white"/>
</svg>
